<!DOCTYPE svg PUBLIC "-//W3C//DTD SVG 1.1//EN" "http://www.w3.org/Graphics/SVG/1.1/DTD/svg11.dtd">
<!-- Uploaded to: SVG Repo, www.svgrepo.com, Transformed by: SVG Repo Mixer Tools -->
<svg fill="#ffffff" height="68px" width="68px" version="1.1" id="Capa_1" xmlns="http://www.w3.org/2000/svg" xmlns:xlink="http://www.w3.org/1999/xlink" viewBox="0 0 59.482 59.482" xml:space="preserve" stroke="#ffffff">
<g id="SVGRepo_bgCarrier" stroke-width="0"/>
<g id="SVGRepo_tracerCarrier" stroke-linecap="round" stroke-linejoin="round"/>
<g id="SVGRepo_iconCarrier"> <path d="M55.301,22.686c-0.774-1.203-1.206-3.811-1.11-5.398c0.225-3.707-1.745-7.388-4.789-8.95 c-0.587-0.302-1.115-0.454-1.581-0.588c-0.801-0.231-1.132-0.327-1.435-0.956c-1.284-2.667-2.7-3.612-5.412-3.612 c-0.397,0-0.828,0.018-1.32,0.049c-0.281,0-0.719-0.469-1.142-0.921c-0.741-0.793-1.731-1.852-3.301-2.032l-0.505-0.05 c-1.682,0-3.309,0.501-4.463,1.374c-0.267,0.202-0.585,0.375-1.007,0.006C28.352,0.83,26.933,0,25.606,0 c-0.458,0-0.868,0.099-1.229,0.299c-1.557,0.308-2.555,1.296-3.292,2.025c-0.49,0.485-0.913,0.904-1.279,0.904h-0.001 c-0.47-0.03-0.901-0.048-1.298-0.048c-2.712,0-4.128,0.945-5.413,3.612c-0.302,0.629-0.633,0.725-1.434,0.956 c-0.465,0.134-0.993,0.286-1.581,0.588c-3.044,1.563-5.013,5.243-4.789,8.95c0.096,1.588-0.336,4.195-1.11,5.398 c-1.908,2.969-1.908,7.114,0,10.082c0.295,0.458,0.727,0.991,1.227,1.609c0.892,1.102,2.386,2.945,2.335,3.789 c-0.227,3.736,2.053,8.041,5.082,9.596c0.545,0.28,0.637,0.563,0.843,1.42c0.114,0.474,0.256,1.063,0.562,1.697 c0.823,1.711,2.114,2.201,3.056,2.561c0.936,0.355,1.323,0.503,1.465,1.529c0.39,2.826,2.064,4.514,4.478,4.514 c2.15,0,4.476-1.453,5.925-3.702c0.177-0.274,0.471-0.305,0.588-0.305s0.411,0.03,0.588,0.305c1.449,2.249,3.775,3.702,5.925,3.702 c1.863,0,4.018-1.186,4.478-4.514c0.142-1.026,0.529-1.174,1.465-1.529c0.942-0.359,2.233-0.85,3.057-2.561 c0.305-0.634,0.447-1.224,0.561-1.697c0.207-0.856,0.298-1.14,0.843-1.42c3.028-1.555,5.308-5.859,5.082-9.596 c-0.051-0.844,1.443-2.688,2.335-3.789c0.5-0.618,0.932-1.151,1.227-1.609C57.209,29.8,57.209,25.654,55.301,22.686z M25.741,11.483 c0.552,0,1,0.448,1,1c0,0.552-0.448,1-1,1s-1-0.448-1-1C24.741,11.93,25.189,11.483,25.741,11.483z M9.741,31.483 c0.552,0,1,0.448,1,1c0,0.552-0.448,1-1,1s-1-0.448-1-1C8.741,31.93,9.189,31.483,9.741,31.483z M7.741,27.483c-0.552,0-1-0.448-1-1 c0-0.552,0.448-1,1-1s1,0.448,1,1C8.741,27.035,8.294,27.483,7.741,27.483z M21.741,29.483c-0.552,0-1-0.448-1-1 c0-0.552,0.448-1,1-1s1,0.448,1,1C22.741,29.035,22.294,29.483,21.741,29.483z M22.741,36.483c0,0.552-0.448,1-1,1s-1-0.448-1-1 c0-0.552,0.448-1,1-1S22.741,35.93,22.741,36.483z M13.741,33.483c-0.552,0-1-0.448-1-1c0-0.552,0.448-1,1-1s1,0.448,1,1 C14.741,33.035,14.294,33.483,13.741,33.483z M14.741,36.483c0,0.552-0.448,1-1,1s-1-0.448-1-1c0-0.552,0.448-1,1-1 S14.741,35.93,14.741,36.483z M11.741,23.483c-0.552,0-1-0.448-1-1c0-0.552,0.448-1,1-1s1,0.448,1,1 C12.741,23.035,12.294,23.483,11.741,23.483z M13.741,29.483c-0.552,0-1-0.448-1-1c0-0.552,0.448-1,1-1s1,0.448,1,1 C14.741,29.035,14.294,29.483,13.741,29.483z M13.741,25.483c-0.552,0-1-0.448-1-1c0-0.552,0.448-1,1-1s1,0.448,1,1 C14.741,25.035,14.294,25.483,13.741,25.483z M15.741,25.483c0.552,0,1,0.448,1,1c0,0.552-0.448,1-1,1s-1-0.448-1-1 C14.741,25.93,15.189,25.483,15.741,25.483z M17.741,33.483c-0.552,0-1-0.448-1-1c0-0.552,0.448-1,1-1s1,0.448,1,1 C18.741,33.035,18.294,33.483,17.741,33.483z M18.741,36.483c0,0.552-0.448,1-1,1s-1-0.448-1-1c0-0.552,0.448-1,1-1 S18.741,35.93,18.741,36.483z M17.741,21.483c-0.552,0-1-0.448-1-1c0-0.552,0.448-1,1-1s1,0.448,1,1 C18.741,21.035,18.294,21.483,17.741,21.483z M19.741,25.483c0.552,0,1,0.448,1,1c0,0.552-0.448,1-1,1s-1-0.448-1-1 C18.741,25.93,19.189,25.483,19.741,25.483z M20.741,20.483c0-0.552,0.448-1,1-1s1,0.448,1,1c0,0.552-0.448,1-1,1 S20.741,21.035,20.741,20.483z M23.741,29.483c0.552,0,1,0.448,1,1c0,0.552-0.448,1-1,1s-1-0.448-1-1 C22.741,29.93,23.189,29.483,23.741,29.483z M23.741,27.483c-0.552,0-1-0.448-1-1c0-0.552,0.448-1,1-1s1,0.448,1,1 C24.741,27.035,24.294,27.483,23.741,27.483z M23.741,23.483c-0.552,0-1-0.448-1-1c0-0.552,0.448-1,1-1s1,0.448,1,1 C24.741,23.035,24.294,23.483,23.741,23.483z M21.741,11.483c0.552,0,1,0.448,1,1c0,0.552-0.448,1-1,1s-1-0.448-1-1 C20.741,11.93,21.189,11.483,21.741,11.483z M20.741,8.483c0-0.552,0.448-1,1-1s1,0.448,1,1c0,0.552-0.448,1-1,1 S20.741,9.035,20.741,8.483z M21.741,15.483c0.552,0,1,0.448,1,1c0,0.552-0.448,1-1,1s-1-0.448-1-1 C20.741,15.93,21.189,15.483,21.741,15.483z M19.741,15.483c-0.552,0-1-0.448-1-1c0-0.552,0.448-1,1-1s1,0.448,1,1 C20.741,15.035,20.294,15.483,19.741,15.483z M17.741,13.483c-0.552,0-1-0.448-1-1c0-0.552,0.448-1,1-1s1,0.448,1,1 C18.741,13.035,18.294,13.483,17.741,13.483z M15.741,11.483c-0.552,0-1-0.448-1-1c0-0.552,0.448-1,1-1s1,0.448,1,1 C16.741,11.035,16.294,11.483,15.741,11.483z M15.741,13.483c0.552,0,1,0.448,1,1c0,0.552-0.448,1-1,1s-1-0.448-1-1 C14.741,13.93,15.189,13.483,15.741,13.483z M15.741,21.483c0.552,0,1,0.448,1,1c0,0.552-0.448,1-1,1s-1-0.448-1-1 C14.741,21.93,15.189,21.483,15.741,21.483z M13.741,21.483c-0.552,0-1-0.448-1-1c0-0.552,0.448-1,1-1s1,0.448,1,1 C14.741,21.035,14.294,21.483,13.741,21.483z M11.741,17.483c0.552,0,1,0.448,1,1c0,0.552-0.448,1-1,1s-1-0.448-1-1 C10.741,17.93,11.189,17.483,11.741,17.483z M10.741,14.483c0-0.552,0.448-1,1-1s1,0.448,1,1c0,0.552-0.448,1-1,1 S10.741,15.035,10.741,14.483z M9.741,17.483c-0.552,0-1-0.448-1-1c0-0.552,0.448-1,1-1s1,0.448,1,1 C10.741,17.035,10.294,17.483,9.741,17.483z M9.741,35.483c0.552,0,1,0.448,1,1c0,0.552-0.448,1-1,1s-1-0.448-1-1 C8.741,35.93,9.189,35.483,9.741,35.483z M11.741,37.483c0.552,0,1,0.448,1,1c0,0.552-0.448,1-1,1s-1-0.448-1-1 C10.741,37.93,11.189,37.483,11.741,37.483z M13.741,39.483c0.552,0,1,0.448,1,1c0,0.552-0.448,1-1,1s-1-0.448-1-1 C12.741,39.93,13.189,39.483,13.741,39.483z M15.741,41.483c0.552,0,1,0.448,1,1c0,0.552-0.448,1-1,1s-1-0.448-1-1 C14.741,41.93,15.189,41.483,15.741,41.483z M15.741,45.483c0.552,0,1,0.448,1,1c0,0.552-0.448,1-1,1s-1-0.448-1-1 C14.741,45.93,15.189,45.483,15.741,45.483z M17.741,47.483c0.552,0,1,0.448,1,1c0,0.552-0.448,1-1,1s-1-0.448-1-1 C16.741,47.93,17.189,47.483,17.741,47.483z M19.741,49.483c0.552,0,1,0.448,1,1c0,0.552-0.448,1-1,1s-1-0.448-1-1 C18.741,49.93,19.189,49.483,19.741,49.483z M19.741,47.483c-0.552,0-1-0.448-1-1c0-0.552,0.448-1,1-1s1,0.448,1,1 C20.741,47.035,20.294,47.483,19.741,47.483z M19.741,43.483c-0.552,0-1-0.448-1-1c0-0.552,0.448-1,1-1s1,0.448,1,1 C20.741,43.035,20.294,43.483,19.741,43.483z M19.741,31.483c-0.552,0-1-0.448-1-1c0-0.552,0.448-1,1-1s1,0.448,1,1 C20.741,31.035,20.294,31.483,19.741,31.483z M21.741,39.483c0.552,0,1,0.448,1,1c0,0.552-0.448,1-1,1s-1-0.448-1-1 C20.741,39.93,21.189,39.483,21.741,39.483z M23.741,41.483c0.552,0,1,0.448,1,1c0,0.552-0.448,1-1,1s-1-0.448-1-1 C22.741,41.93,23.189,41.483,23.741,41.483z M25.741,43.483c0.552,0,1,0.448,1,1c0,0.552-0.448,1-1,1s-1-0.448-1-1 C24.741,43.93,25.189,43.483,25.741,43.483z M25.741,37.483c-0.552,0-1-0.448-1-1c0-0.552,0.448-1,1-1s1,0.448,1,1 C26.741,37.035,26.294,37.483,25.741,37.483z M25.741,33.483c-0.552,0-1-0.448-1-1c0-0.552,0.448-1,1-1s1,0.448,1,1 C26.741,33.035,26.294,33.483,25.741,33.483z M25.741,25.483c-0.552,0-1-0.448-1-1c0-0.552,0.448-1,1-1s1,0.448,1,1 C26.741,25.035,26.294,25.483,25.741,25.483z M25.741,21.483c-0.552,0-1-0.448-1-1c0-0.552,0.448-1,1-1s1,0.448,1,1 C26.741,21.035,26.294,21.483,25.741,21.483z M25.741,17.483c-0.552,0-1-0.448-1-1c0-0.552,0.448-1,1-1s1,0.448,1,1 C26.741,17.035,26.294,17.483,25.741,17.483z M23.741,1.483c0.552,0,1,0.448,1,1c0,0.552-0.448,1-1,1s-1-0.448-1-1 C22.741,1.93,23.189,1.483,23.741,1.483z M21.741,3.483c0.552,0,1,0.448,1,1c0,0.552-0.448,1-1,1s-1-0.448-1-1 C20.741,3.93,21.189,3.483,21.741,3.483z M19.741,5.483c0.552,0,1,0.448,1,1c0,0.552-0.448,1-1,1s-1-0.448-1-1 C18.741,5.93,19.189,5.483,19.741,5.483z M17.741,3.483c0.552,0,1,0.448,1,1c0,0.552-0.448,1-1,1s-1-0.448-1-1 C16.741,3.93,17.189,3.483,17.741,3.483z M15.741,5.483c0.552,0,1,0.448,1,1c0,0.552-0.448,1-1,1s-1-0.448-1-1 C14.741,5.93,15.189,5.483,15.741,5.483z M13.741,7.483c0.552,0,1,0.448,1,1c0,0.552-0.448,1-1,1s-1-0.448-1-1 C12.741,7.93,13.189,7.483,13.741,7.483z M11.741,9.483c0.552,0,1,0.448,1,1c0,0.552-0.448,1-1,1s-1-0.448-1-1 C10.741,9.93,11.189,9.483,11.741,9.483z M9.741,11.483c0.552,0,1,0.448,1,1c0,0.552-0.448,1-1,1s-1-0.448-1-1 C8.741,11.93,9.189,11.483,9.741,11.483z M7.741,13.483c0.552,0,1,0.448,1,1c0,0.552-0.448,1-1,1s-1-0.448-1-1 C6.741,13.93,7.189,13.483,7.741,13.483z M7.741,17.483c0.552,0,1,0.448,1,1c0,0.552-0.448,1-1,1s-1-0.448-1-1 C6.741,17.93,7.189,17.483,7.741,17.483z M7.741,21.483c0.552,0,1,0.448,1,1c0,0.552-0.448,1-1,1s-1-0.448-1-1 C6.741,21.93,7.189,21.483,7.741,21.483z M5.741,23.483c0.552,0,1,0.448,1,1c0,0.552-0.448,1-1,1s-1-0.448-1-1 C4.741,23.93,5.189,23.483,5.741,23.483z M5.741,27.483c0.552,0,1,0.448,1,1c0,0.552-0.448,1-1,1s-1-0.448-1-1 C4.741,27.93,5.189,27.483,5.741,27.483z M5.741,33.483c-0.552,0-1-0.448-1-1c0-0.552,0.448-1,1-1s1,0.448,1,1 C6.741,33.035,6.294,33.483,5.741,33.483z M7.741,35.483c-0.552,0-1-0.448-1-1c0-0.552,0.448-1,1-1s1,0.448,1,1 C8.741,35.035,8.294,35.483,7.741,35.483z M9.741,41.483c-0.552,0-1-0.448-1-1c0-0.552,0.448-1,1-1s1,0.448,1,1 C10.741,41.035,10.294,41.483,9.741,41.483z M11.741,43.483c-0.552,0-1-0.448-1-1c0-0.552,0.448-1,1-1s1,0.448,1,1 C12.741,43.035,12.294,43.483,11.741,43.483z M13.741,45.483c-0.552,0-1-0.448-1-1c0-0.552,0.448-1,1-1s1,0.448,1,1 C14.741,45.035,14.294,45.483,13.741,45.483z M15.741,51.483c-0.552,0-1-0.448-1-1c0-0.552,0.448-1,1-1s1,0.448,1,1 C16.741,51.035,16.294,51.483,15.741,51.483z M17.741,53.483c-0.552,0-1-0.448-1-1c0-0.552,0.448-1,1-1s1,0.448,1,1 C18.741,53.035,18.294,53.483,17.741,53.483z M19.741,55.483c-0.552,0-1-0.448-1-1c0-0.552,0.448-1,1-1s1,0.448,1,1 C20.741,55.035,20.294,55.483,19.741,55.483z M21.741,57.483c-0.552,0-1-0.448-1-1c0-0.552,0.448-1,1-1s1,0.448,1,1 C22.741,57.035,22.294,57.483,21.741,57.483z M21.741,53.483c-0.552,0-1-0.448-1-1c0-0.552,0.448-1,1-1s1,0.448,1,1 C22.741,53.035,22.294,53.483,21.741,53.483z M23.741,51.483c-0.552,0-1-0.448-1-1c0-0.552,0.448-1,1-1s1,0.448,1,1 C24.741,51.035,24.294,51.483,23.741,51.483z M25.741,53.483c-0.552,0-1-0.448-1-1c0-0.552,0.448-1,1-1s1,0.448,1,1 C26.741,53.035,26.294,53.483,25.741,53.483z M27.741,55.483c-0.552,0-1-0.448-1-1c0-0.552,0.448-1,1-1s1,0.448,1,1 C28.741,55.035,28.294,55.483,27.741,55.483z M27.741,47.483c-0.552,0-1-0.448-1-1c0-0.552,0.448-1,1-1s1,0.448,1,1 C28.741,47.035,28.294,47.483,27.741,47.483z M27.741,39.483c-0.552,0-1-0.448-1-1c0-0.552,0.448-1,1-1s1,0.448,1,1 C28.741,39.035,28.294,39.483,27.741,39.483z M27.741,27.483c-0.552,0-1-0.448-1-1c0-0.552,0.448-1,1-1s1,0.448,1,1 C28.741,27.035,28.294,27.483,27.741,27.483z M27.741,7.483c-0.552,0-1-0.448-1-1c0-0.552,0.448-1,1-1s1,0.448,1,1 C28.741,7.035,28.294,7.483,27.741,7.483z M27.741,3.483c-0.552,0-1-0.448-1-1c0-0.552,0.448-1,1-1s1,0.448,1,1 C28.741,3.035,28.294,3.483,27.741,3.483z M51.741,13.483c0.552,0,1,0.448,1,1c0,0.552-0.448,1-1,1s-1-0.448-1-1 C50.741,13.93,51.189,13.483,51.741,13.483z M33.741,37.483c-0.552,0-1-0.448-1-1c0-0.552,0.448-1,1-1s1,0.448,1,1 C34.741,37.035,34.294,37.483,33.741,37.483z M34.741,44.483c0,0.552-0.448,1-1,1s-1-0.448-1-1c0-0.552,0.448-1,1-1 S34.741,43.93,34.741,44.483z M45.741,29.483c-0.552,0-1-0.448-1-1c0-0.552,0.448-1,1-1s1,0.448,1,1 C46.741,29.035,46.294,29.483,45.741,29.483z M46.741,32.483c0,0.552-0.448,1-1,1s-1-0.448-1-1c0-0.552,0.448-1,1-1 S46.741,31.93,46.741,32.483z M45.741,25.483c-0.552,0-1-0.448-1-1c0-0.552,0.448-1,1-1s1,0.448,1,1 C46.741,25.035,46.294,25.483,45.741,25.483z M43.741,23.483c-0.552,0-1-0.448-1-1c0-0.552,0.448-1,1-1s1,0.448,1,1 C44.741,23.035,44.294,23.483,43.741,23.483z M45.741,21.483c-0.552,0-1-0.448-1-1c0-0.552,0.448-1,1-1s1,0.448,1,1 C46.741,21.035,46.294,21.483,45.741,21.483z M43.741,13.483c0.552,0,1,0.448,1,1c0,0.552-0.448,1-1,1s-1-0.448-1-1 C42.741,13.93,43.189,13.483,43.741,13.483z M42.741,10.483c0-0.552,0.448-1,1-1s1,0.448,1,1c0,0.552-0.448,1-1,1 S42.741,11.035,42.741,10.483z M41.741,13.483c-0.552,0-1-0.448-1-1c0-0.552,0.448-1,1-1s1,0.448,1,1 C42.741,13.035,42.294,13.483,41.741,13.483z M41.741,19.483c0.552,0,1,0.448,1,1c0,0.552-0.448,1-1,1s-1-0.448-1-1 C40.741,19.93,41.189,19.483,41.741,19.483z M37.741,21.483c-0.552,0-1-0.448-1-1c0-0.552,0.448-1,1-1s1,0.448,1,1 C38.741,21.035,38.294,21.483,37.741,21.483z M39.741,25.483c0.552,0,1,0.448,1,1c0,0.552-0.448,1-1,1s-1-0.448-1-1 C38.741,25.93,39.189,25.483,39.741,25.483z M37.741,27.483c0.552,0,1,0.448,1,1c0,0.552-0.448,1-1,1s-1-0.448-1-1 C36.741,27.93,37.189,27.483,37.741,27.483z M35.741,25.483c0.552,0,1,0.448,1,1c0,0.552-0.448,1-1,1s-1-0.448-1-1 C34.741,25.93,35.189,25.483,35.741,25.483z M34.741,22.483c0-0.552,0.448-1,1-1s1,0.448,1,1c0,0.552-0.448,1-1,1 S34.741,23.035,34.741,22.483z M35.741,29.483c0.552,0,1,0.448,1,1c0,0.552-0.448,1-1,1s-1-0.448-1-1 C34.741,29.93,35.189,29.483,35.741,29.483z M37.741,35.483c0.552,0,1,0.448,1,1c0,0.552-0.448,1-1,1s-1-0.448-1-1 C36.741,35.93,37.189,35.483,37.741,35.483z M39.741,31.483c-0.552,0-1-0.448-1-1c0-0.552,0.448-1,1-1s1,0.448,1,1 C40.741,31.035,40.294,31.483,39.741,31.483z M40.741,42.483c0,0.552-0.448,1-1,1s-1-0.448-1-1c0-0.552,0.448-1,1-1 S40.741,41.93,40.741,42.483z M41.741,31.483c0.552,0,1,0.448,1,1c0,0.552-0.448,1-1,1s-1-0.448-1-1 C40.741,31.93,41.189,31.483,41.741,31.483z M39.741,15.483c-0.552,0-1-0.448-1-1c0-0.552,0.448-1,1-1s1,0.448,1,1 C40.741,15.035,40.294,15.483,39.741,15.483z M37.741,11.483c0.552,0,1,0.448,1,1c0,0.552-0.448,1-1,1s-1-0.448-1-1 C36.741,11.93,37.189,11.483,37.741,11.483z M36.741,8.483c0-0.552,0.448-1,1-1s1,0.448,1,1c0,0.552-0.448,1-1,1 S36.741,9.035,36.741,8.483z M37.741,15.483c0.552,0,1,0.448,1,1c0,0.552-0.448,1-1,1s-1-0.448-1-1 C36.741,15.93,37.189,15.483,37.741,15.483z M35.741,15.483c-0.552,0-1-0.448-1-1c0-0.552,0.448-1,1-1s1,0.448,1,1 C36.741,15.035,36.294,15.483,35.741,15.483z M33.741,13.483c-0.552,0-1-0.448-1-1c0-0.552,0.448-1,1-1s1,0.448,1,1 C34.741,13.035,34.294,13.483,33.741,13.483z M33.741,15.483c0.552,0,1,0.448,1,1c0,0.552-0.448,1-1,1s-1-0.448-1-1 C32.741,15.93,33.189,15.483,33.741,15.483z M33.741,19.483c0.552,0,1,0.448,1,1c0,0.552-0.448,1-1,1s-1-0.448-1-1 C32.741,19.93,33.189,19.483,33.741,19.483z M33.741,23.483c0.552,0,1,0.448,1,1c0,0.552-0.448,1-1,1s-1-0.448-1-1 C32.741,23.93,33.189,23.483,33.741,23.483z M33.741,31.483c0.552,0,1,0.448,1,1c0,0.552-0.448,1-1,1s-1-0.448-1-1 C32.741,31.93,33.189,31.483,33.741,31.483z M35.741,41.483c0.552,0,1,0.448,1,1c0,0.552-0.448,1-1,1s-1-0.448-1-1 C34.741,41.93,35.189,41.483,35.741,41.483z M37.741,41.483c-0.552,0-1-0.448-1-1c0-0.552,0.448-1,1-1s1,0.448,1,1 C38.741,41.035,38.294,41.483,37.741,41.483z M38.741,52.483c0,0.552-0.448,1-1,1s-1-0.448-1-1c0-0.552,0.448-1,1-1 S38.741,51.93,38.741,52.483z M39.741,47.483c-0.552,0-1-0.448-1-1c0-0.552,0.448-1,1-1s1,0.448,1,1 C40.741,47.035,40.294,47.483,39.741,47.483z M40.741,50.483c0,0.552-0.448,1-1,1s-1-0.448-1-1c0-0.552,0.448-1,1-1 S40.741,49.93,40.741,50.483z M41.741,47.483c0.552,0,1,0.448,1,1c0,0.552-0.448,1-1,1s-1-0.448-1-1 C40.741,47.93,41.189,47.483,41.741,47.483z M41.741,37.483c-0.552,0-1-0.448-1-1c0-0.552,0.448-1,1-1s1,0.448,1,1 C42.741,37.035,42.294,37.483,41.741,37.483z M43.741,41.483c0.552,0,1,0.448,1,1c0,0.552-0.448,1-1,1s-1-0.448-1-1 C42.741,41.93,43.189,41.483,43.741,41.483z M43.741,27.483c-0.552,0-1-0.448-1-1c0-0.552,0.448-1,1-1s1,0.448,1,1 C44.741,27.035,44.294,27.483,43.741,27.483z M45.741,37.483c-0.552,0-1-0.448-1-1c0-0.552,0.448-1,1-1s1,0.448,1,1 C46.741,37.035,46.294,37.483,45.741,37.483z M46.741,40.483c0,0.552-0.448,1-1,1s-1-0.448-1-1c0-0.552,0.448-1,1-1 S46.741,39.93,46.741,40.483z M47.741,37.483c0.552,0,1,0.448,1,1c0,0.552-0.448,1-1,1s-1-0.448-1-1 C46.741,37.93,47.189,37.483,47.741,37.483z M47.741,23.483c-0.552,0-1-0.448-1-1c0-0.552,0.448-1,1-1s1,0.448,1,1 C48.741,23.035,48.294,23.483,47.741,23.483z M47.741,17.483c0.552,0,1,0.448,1,1c0,0.552-0.448,1-1,1s-1-0.448-1-1 C46.741,17.93,47.189,17.483,47.741,17.483z M46.741,14.483c0-0.552,0.448-1,1-1s1,0.448,1,1c0,0.552-0.448,1-1,1 S46.741,15.035,46.741,14.483z M49.741,29.483c-0.552,0-1-0.448-1-1c0-0.552,0.448-1,1-1s1,0.448,1,1 C50.741,29.035,50.294,29.483,49.741,29.483z M50.741,32.483c0,0.552-0.448,1-1,1s-1-0.448-1-1c0-0.552,0.448-1,1-1 S50.741,31.93,50.741,32.483z M49.741,17.483c-0.552,0-1-0.448-1-1c0-0.552,0.448-1,1-1s1,0.448,1,1 C50.741,17.035,50.294,17.483,49.741,17.483z M51.741,23.483c-0.552,0-1-0.448-1-1c0-0.552,0.448-1,1-1s1,0.448,1,1 C52.741,23.035,52.294,23.483,51.741,23.483z M52.741,26.483c0,0.552-0.448,1-1,1s-1-0.448-1-1c0-0.552,0.448-1,1-1 S52.741,25.93,52.741,26.483z M51.741,19.483c-0.552,0-1-0.448-1-1c0-0.552,0.448-1,1-1s1,0.448,1,1 C52.741,19.035,52.294,19.483,51.741,19.483z M49.741,11.483c0.552,0,1,0.448,1,1c0,0.552-0.448,1-1,1s-1-0.448-1-1 C48.741,11.93,49.189,11.483,49.741,11.483z M47.741,9.483c0.552,0,1,0.448,1,1c0,0.552-0.448,1-1,1s-1-0.448-1-1 C46.741,9.93,47.189,9.483,47.741,9.483z M45.741,7.483c0.552,0,1,0.448,1,1c0,0.552-0.448,1-1,1s-1-0.448-1-1 C44.741,7.93,45.189,7.483,45.741,7.483z M43.741,5.483c0.552,0,1,0.448,1,1c0,0.552-0.448,1-1,1s-1-0.448-1-1 C42.741,5.93,43.189,5.483,43.741,5.483z M41.741,3.483c0.552,0,1,0.448,1,1c0,0.552-0.448,1-1,1s-1-0.448-1-1 C40.741,3.93,41.189,3.483,41.741,3.483z M39.741,5.483c0.552,0,1,0.448,1,1c0,0.552-0.448,1-1,1s-1-0.448-1-1 C38.741,5.93,39.189,5.483,39.741,5.483z M37.741,3.483c0.552,0,1,0.448,1,1c0,0.552-0.448,1-1,1s-1-0.448-1-1 C36.741,3.93,37.189,3.483,37.741,3.483z M35.741,1.483c0.552,0,1,0.448,1,1c0,0.552-0.448,1-1,1s-1-0.448-1-1 C34.741,1.93,35.189,1.483,35.741,1.483z M33.741,3.483c0.552,0,1,0.448,1,1c0,0.552-0.448,1-1,1s-1-0.448-1-1 C32.741,3.93,33.189,3.483,33.741,3.483z M31.741,1.483c0.552,0,1,0.448,1,1c0,0.552-0.448,1-1,1s-1-0.448-1-1 C30.741,1.93,31.189,1.483,31.741,1.483z M31.741,9.483c0.552,0,1,0.448,1,1c0,0.552-0.448,1-1,1s-1-0.448-1-1 C30.741,9.93,31.189,9.483,31.741,9.483z M31.741,17.483c0.552,0,1,0.448,1,1c0,0.552-0.448,1-1,1s-1-0.448-1-1 C30.741,17.93,31.189,17.483,31.741,17.483z M31.741,29.483c0.552,0,1,0.448,1,1c0,0.552-0.448,1-1,1s-1-0.448-1-1 C30.741,29.93,31.189,29.483,31.741,29.483z M31.741,33.483c0.552,0,1,0.448,1,1c0,0.552-0.448,1-1,1s-1-0.448-1-1 C30.741,33.93,31.189,33.483,31.741,33.483z M31.741,41.483c0.552,0,1,0.448,1,1c0,0.552-0.448,1-1,1s-1-0.448-1-1 C30.741,41.93,31.189,41.483,31.741,41.483z M31.741,51.483c-0.552,0-1-0.448-1-1c0-0.552,0.448-1,1-1s1,0.448,1,1 C32.741,51.035,32.294,51.483,31.741,51.483z M33.741,57.483c-0.552,0-1-0.448-1-1c0-0.552,0.448-1,1-1s1,0.448,1,1 C34.741,57.035,34.294,57.483,33.741,57.483z M33.741,53.483c-0.552,0-1-0.448-1-1c0-0.552,0.448-1,1-1s1,0.448,1,1 C34.741,53.035,34.294,53.483,33.741,53.483z M35.741,51.483c-0.552,0-1-0.448-1-1c0-0.552,0.448-1,1-1s1,0.448,1,1 C36.741,51.035,36.294,51.483,35.741,51.483z M37.741,57.483c-0.552,0-1-0.448-1-1c0-0.552,0.448-1,1-1s1,0.448,1,1 C38.741,57.035,38.294,57.483,37.741,57.483z M39.741,55.483c-0.552,0-1-0.448-1-1c0-0.552,0.448-1,1-1s1,0.448,1,1 C40.741,55.035,40.294,55.483,39.741,55.483z M41.741,53.483c-0.552,0-1-0.448-1-1c0-0.552,0.448-1,1-1s1,0.448,1,1 C42.741,53.035,42.294,53.483,41.741,53.483z M43.741,51.483c-0.552,0-1-0.448-1-1c0-0.552,0.448-1,1-1s1,0.448,1,1 C44.741,51.035,44.294,51.483,43.741,51.483z M43.741,47.483c-0.552,0-1-0.448-1-1c0-0.552,0.448-1,1-1s1,0.448,1,1 C44.741,47.035,44.294,47.483,43.741,47.483z M45.741,45.483c-0.552,0-1-0.448-1-1c0-0.552,0.448-1,1-1s1,0.448,1,1 C46.741,45.035,46.294,45.483,45.741,45.483z M47.741,43.483c-0.552,0-1-0.448-1-1c0-0.552,0.448-1,1-1s1,0.448,1,1 C48.741,43.035,48.294,43.483,47.741,43.483z M49.741,41.483c-0.552,0-1-0.448-1-1c0-0.552,0.448-1,1-1s1,0.448,1,1 C50.741,41.035,50.294,41.483,49.741,41.483z M49.741,37.483c-0.552,0-1-0.448-1-1c0-0.552,0.448-1,1-1s1,0.448,1,1 C50.741,37.035,50.294,37.483,49.741,37.483z M51.741,35.483c-0.552,0-1-0.448-1-1c0-0.552,0.448-1,1-1s1,0.448,1,1 C52.741,35.035,52.294,35.483,51.741,35.483z M53.741,33.483c-0.552,0-1-0.448-1-1c0-0.552,0.448-1,1-1s1,0.448,1,1 C54.741,33.035,54.294,33.483,53.741,33.483z M53.741,29.483c-0.552,0-1-0.448-1-1c0-0.552,0.448-1,1-1s1,0.448,1,1 C54.741,29.035,54.294,29.483,53.741,29.483z M53.741,25.483c-0.552,0-1-0.448-1-1c0-0.552,0.448-1,1-1s1,0.448,1,1 C54.741,25.035,54.294,25.483,53.741,25.483z"/> </g>
</svg>